<svg width="98" height="31" viewBox="0 0 98 31" fill="none" xmlns="http://www.w3.org/2000/svg">
<path d="M24.2773 16.36H17.5573C16.5973 14.28 14.8773 13.24 12.5973 13.24C9.55734 13.24 7.47734 15.76 7.47734 18.88C7.47734 22.12 9.67735 24.52 12.7573 24.52C14.9973 24.52 16.5573 23.48 17.5573 21.56H24.3173C22.9973 27.12 18.2373 30.72 12.5573 30.72C5.99734 30.72 0.797345 25.4 0.797345 18.84C0.797345 12.2 6.03734 7.04 12.4373 7.04C18.2773 7.04 23.0373 10.72 24.2773 16.36ZM46.9311 30H40.6511V27.64H40.5711C39.6111 29.68 37.8511 30.72 34.8511 30.72C30.1711 30.72 26.2911 27.92 26.2911 21.6V7.8H32.9311V20.24C32.9311 23.16 33.9711 24.52 36.4911 24.52C39.0111 24.52 40.2911 22.84 40.2911 20.12V7.8H46.9311V30ZM56.7227 30H50.0827V7.8H56.3227V10.16H56.4027C57.5627 7.8 59.4027 7.04 61.9627 7.04V13.72C58.0027 13.76 56.7227 15.24 56.7227 17.76V30ZM70.5533 5.44H63.9133V0.4H70.5533V5.44ZM70.5533 30H63.9133V7.8H70.5533V30ZM97.0786 30H90.4386V27.6H90.3586C89.3986 29.56 86.7586 30.76 83.8386 30.76C77.2786 30.76 72.7186 25.6 72.7186 18.88C72.7186 12.32 77.4786 7.04 83.8386 7.04C86.5586 7.04 89.0786 8.12 90.3586 10.16H90.4386V7.8H97.0786V30ZM84.8786 24.56C87.9986 24.56 90.4386 22.08 90.4386 18.88C90.4386 15.76 87.9186 13.24 84.7986 13.24C81.7586 13.24 79.3586 15.76 79.3586 18.96C79.3586 22.04 81.7986 24.56 84.8786 24.56Z" fill="black"/>
</svg>
