<svg width="75" height="72" viewBox="0 0 75 72" fill="none" xmlns="http://www.w3.org/2000/svg">
<g filter="url(#filter0_d_20_2)">
<rect x="14.9" y="10.9" width="44.3333" height="42" rx="9" fill="black"/>
</g>
<path d="M30.2846 37.8487V23.4897C30.2846 22.5377 30.6628 21.6246 31.336 20.9514C32.0092 20.2782 32.9223 19.9 33.8743 19.9H45.0923" fill="black"/>
<path d="M41.9513 25.2846V39.6436C41.9513 40.5956 41.5731 41.5087 40.8999 42.1819C40.2267 42.8551 39.3137 43.2333 38.3616 43.2333" fill="black"/>
<path d="M34.7718 39.6436V38.7462C34.7718 38.5081 34.6773 38.2799 34.509 38.1116C34.3407 37.9433 34.1124 37.8487 33.8744 37.8487H25.7975C25.5594 37.8487 25.3312 37.9433 25.1629 38.1116C24.9946 38.2799 24.9 38.5081 24.9 38.7462V39.6436C24.9 40.5956 25.2782 41.5087 25.9514 42.1819C26.6246 42.8551 27.5377 43.2333 28.4898 43.2333H38.3616C37.4095 43.2333 36.4964 42.8551 35.8232 42.1819C35.15 41.5087 34.7718 40.5956 34.7718 39.6436Z" fill="black"/>
<path d="M45.0923 19.9C45.9253 19.9 46.7243 20.2309 47.3133 20.82C47.9024 21.409 48.2333 22.208 48.2333 23.041V24.3872C48.2333 24.6252 48.1388 24.8535 47.9705 25.0218C47.8022 25.1901 47.5739 25.2846 47.3359 25.2846L41.9513 25.2846L41.9513 23.041C41.9513 22.208 42.2822 21.409 42.8712 20.82C43.4603 20.2309 44.2592 19.9 45.0923 19.9Z" fill="black"/>
<path d="M30.2846 37.8487V23.4897C30.2846 22.5377 30.6628 21.6246 31.336 20.9514C32.0092 20.2782 32.9223 19.9 33.8743 19.9H45.0923M45.0923 19.9C45.9253 19.9 46.7243 20.2309 47.3133 20.82C47.9024 21.409 48.2333 22.208 48.2333 23.041V24.3872C48.2333 24.6252 48.1388 24.8535 47.9705 25.0218C47.8022 25.1901 47.5739 25.2846 47.3359 25.2846L41.9513 25.2846M45.0923 19.9C44.2592 19.9 43.4603 20.2309 42.8712 20.82C42.2822 21.409 41.9513 22.208 41.9513 23.041L41.9513 25.2846M41.9513 25.2846V39.6436C41.9513 40.5956 41.5731 41.5087 40.8999 42.1819C40.2267 42.8551 39.3137 43.2333 38.3616 43.2333M38.3616 43.2333H28.4898C27.5377 43.2333 26.6246 42.8551 25.9514 42.1819C25.2782 41.5087 24.9 40.5956 24.9 39.6436V38.7462C24.9 38.5081 24.9946 38.2799 25.1629 38.1116C25.3312 37.9433 25.5594 37.8487 25.7975 37.8487H33.8744C34.1124 37.8487 34.3407 37.9433 34.509 38.1116C34.6773 38.2799 34.7718 38.5081 34.7718 38.7462V39.6436C34.7718 40.5956 35.15 41.5087 35.8232 42.1819C36.4964 42.8551 37.4095 43.2333 38.3616 43.2333ZM34.7718 26.1821H37.4641M34.7718 31.5667H37.4641" stroke="white" stroke-width="2" stroke-linecap="round" stroke-linejoin="round"/>
<defs>
<filter id="filter0_d_20_2" x="2.47955e-05" y="0" width="74.1334" height="71.8" filterUnits="userSpaceOnUse" color-interpolation-filters="sRGB">
<feFlood flood-opacity="0" result="BackgroundImageFix"/>
<feColorMatrix in="SourceAlpha" type="matrix" values="0 0 0 0 0 0 0 0 0 0 0 0 0 0 0 0 0 0 127 0" result="hardAlpha"/>
<feMorphology radius="5" operator="erode" in="SourceAlpha" result="effect1_dropShadow_20_2"/>
<feOffset dy="4"/>
<feGaussianBlur stdDeviation="9.95"/>
<feComposite in2="hardAlpha" operator="out"/>
<feColorMatrix type="matrix" values="0 0 0 0 0 0 0 0 0 0 0 0 0 0 0 0 0 0 0.25 0"/>
<feBlend mode="normal" in2="BackgroundImageFix" result="effect1_dropShadow_20_2"/>
<feBlend mode="normal" in="SourceGraphic" in2="effect1_dropShadow_20_2" result="shape"/>
</filter>
</defs>
</svg>
