<svg width="225" height="90" viewBox="0 0 225 90" fill="none" xmlns="http://www.w3.org/2000/svg">
<path d="M106.824 38.176H96.0718C94.5358 34.848 91.7838 33.184 88.1358 33.184C83.2718 33.184 79.9438 37.216 79.9438 42.208C79.9438 47.392 83.4638 51.232 88.3918 51.232C91.9758 51.232 94.4718 49.568 96.0718 46.496H106.888C104.776 55.392 97.1598 61.152 88.0718 61.152C77.5758 61.152 69.2558 52.64 69.2558 42.144C69.2558 31.52 77.6398 23.264 87.8798 23.264C97.2238 23.264 104.84 29.152 106.824 38.176ZM142.43 60H132.382V56.224H132.254C130.718 59.488 127.902 61.152 123.102 61.152C115.614 61.152 109.406 56.672 109.406 46.56V24.48H120.03V44.384C120.03 49.056 121.694 51.232 125.726 51.232C129.758 51.232 131.806 48.544 131.806 44.192V24.48H142.43V60ZM157.456 60H146.832V24.48H156.816V28.256H156.944C158.8 24.48 161.744 23.264 165.84 23.264V33.952C159.504 34.016 157.456 36.384 157.456 40.416V60ZM178.945 20.704H168.321V12.64H178.945V20.704ZM178.945 60H168.321V24.48H178.945V60ZM220.746 60H210.122V56.16H209.994C208.458 59.296 204.234 61.216 199.562 61.216C189.066 61.216 181.77 52.96 181.77 42.208C181.77 31.712 189.386 23.264 199.562 23.264C203.914 23.264 207.946 24.992 209.994 28.256H210.122V24.48H220.746V60ZM201.226 51.296C206.218 51.296 210.122 47.328 210.122 42.208C210.122 37.216 206.09 33.184 201.098 33.184C196.234 33.184 192.394 37.216 192.394 42.336C192.394 47.264 196.298 51.296 201.226 51.296Z" fill="white"/>
<path d="M106.824 38.176H96.0718C94.5358 34.848 91.7838 33.184 88.1358 33.184C83.2718 33.184 79.9438 37.216 79.9438 42.208C79.9438 47.392 83.4638 51.232 88.3918 51.232C91.9758 51.232 94.4718 49.568 96.0718 46.496H106.888C104.776 55.392 97.1598 61.152 88.0718 61.152C77.5758 61.152 69.2558 52.64 69.2558 42.144C69.2558 31.52 77.6398 23.264 87.8798 23.264C97.2238 23.264 104.84 29.152 106.824 38.176ZM142.43 60H132.382V56.224H132.254C130.718 59.488 127.902 61.152 123.102 61.152C115.614 61.152 109.406 56.672 109.406 46.56V24.48H120.03V44.384C120.03 49.056 121.694 51.232 125.726 51.232C129.758 51.232 131.806 48.544 131.806 44.192V24.48H142.43V60ZM157.456 60H146.832V24.48H156.816V28.256H156.944C158.8 24.48 161.744 23.264 165.84 23.264V33.952C159.504 34.016 157.456 36.384 157.456 40.416V60ZM178.945 20.704H168.321V12.64H178.945V20.704ZM178.945 60H168.321V24.48H178.945V60ZM220.746 60H210.122V56.16H209.994C208.458 59.296 204.234 61.216 199.562 61.216C189.066 61.216 181.77 52.96 181.77 42.208C181.77 31.712 189.386 23.264 199.562 23.264C203.914 23.264 207.946 24.992 209.994 28.256H210.122V24.48H220.746V60ZM201.226 51.296C206.218 51.296 210.122 47.328 210.122 42.208C210.122 37.216 206.09 33.184 201.098 33.184C196.234 33.184 192.394 37.216 192.394 42.336C192.394 47.264 196.298 51.296 201.226 51.296Z" fill="white"/>
<g filter="url(#filter0_d_14_22)">
<path d="M51.233 19C57.3082 19 62.233 23.9249 62.233 30V52.8418C62.233 58.9169 57.3082 63.8418 51.233 63.8418H25.9C19.8249 63.8418 14.9 58.9169 14.9 52.8418V30C14.9 23.9249 19.8249 19 25.9 19H51.233ZM34.861 26.4736C33.3946 26.4737 32.0048 27.0811 30.9928 28.1357C29.9833 29.1881 29.4294 30.6007 29.4293 32.0576V47.2793H25.8805C25.2918 47.2793 24.7367 47.4931 24.3053 47.8613L24.1285 48.0283C23.6807 48.4953 23.4413 49.1132 23.441 49.7422V50.7842C23.4412 52.241 23.9961 53.6528 25.0055 54.7051C26.0176 55.7601 27.4079 56.3682 28.8746 56.3682H39.8512L40.1256 56.3613C41.49 56.2905 42.7698 55.6937 43.7184 54.7051C44.7278 53.6528 45.2836 52.241 45.2838 50.7842V35.5625H49.8287C50.5015 35.5625 51.131 35.2832 51.5817 34.8135C52.0296 34.3464 52.268 33.7277 52.2682 33.0986V31.5381C52.2682 30.2192 51.767 28.9393 50.8512 27.9844C49.9327 27.0269 48.6689 26.4737 47.3346 26.4736H34.861ZM34.4176 50.126V50.7842C34.4177 51.7465 34.6616 52.6882 35.1168 53.5205H28.8746C28.2243 53.5205 27.5832 53.2525 27.0983 52.7471C26.6109 52.239 26.3241 51.534 26.3239 50.7842V50.126H34.4176ZM42.9 29.3203C42.5739 30.008 42.401 30.7662 42.401 31.5381V50.7842C42.4008 51.5339 42.1147 52.239 41.6276 52.7471C41.1427 53.2525 40.5014 53.5204 39.8512 53.5205C39.2009 53.5205 38.5598 53.2524 38.0748 52.7471C37.5876 52.239 37.3006 51.534 37.3004 50.7842V49.7422C37.3002 49.1917 37.117 48.6497 36.7711 48.21L36.6139 48.0283L36.4362 47.8613C36.0048 47.4931 35.4497 47.2793 34.861 47.2793H32.3121V32.0576C32.3123 31.3078 32.5974 30.6028 33.0846 30.0947C33.5695 29.5892 34.2107 29.3204 34.861 29.3203H42.9ZM35.859 39.9971C35.0631 39.9972 34.4176 40.6348 34.4176 41.4209C34.4177 42.207 35.0631 42.8446 35.859 42.8447H38.8531C39.649 42.8445 40.2945 42.2069 40.2946 41.4209C40.2946 40.6348 39.649 39.9973 38.8531 39.9971H35.859ZM35.859 33.7549C35.0632 33.755 34.4177 34.3927 34.4176 35.1787C34.4176 35.9649 35.0631 36.6024 35.859 36.6025H38.8531C39.649 36.6023 40.2946 35.9648 40.2946 35.1787C40.2944 34.3927 39.6489 33.7551 38.8531 33.7549H35.859ZM47.3346 29.3203C47.8525 29.3204 48.3671 29.5345 48.7584 29.9424C49.1521 30.353 49.3853 30.9262 49.3854 31.5381V32.7158H45.2838V31.5381C45.2838 30.9261 45.518 30.353 45.9117 29.9424C46.303 29.5347 46.8168 29.3204 47.3346 29.3203Z" fill="white"/>
</g>
<defs>
<filter id="filter0_d_14_22" x="2.47955e-05" y="8.1" width="77.133" height="74.6418" filterUnits="userSpaceOnUse" color-interpolation-filters="sRGB">
<feFlood flood-opacity="0" result="BackgroundImageFix"/>
<feColorMatrix in="SourceAlpha" type="matrix" values="0 0 0 0 0 0 0 0 0 0 0 0 0 0 0 0 0 0 127 0" result="hardAlpha"/>
<feMorphology radius="5" operator="erode" in="SourceAlpha" result="effect1_dropShadow_14_22"/>
<feOffset dy="4"/>
<feGaussianBlur stdDeviation="9.95"/>
<feComposite in2="hardAlpha" operator="out"/>
<feColorMatrix type="matrix" values="0 0 0 0 0 0 0 0 0 0 0 0 0 0 0 0 0 0 0.25 0"/>
<feBlend mode="normal" in2="BackgroundImageFix" result="effect1_dropShadow_14_22"/>
<feBlend mode="normal" in="SourceGraphic" in2="effect1_dropShadow_14_22" result="shape"/>
</filter>
</defs>
</svg>
